<svg xmlns:dc="http://purl.org/dc/elements/1.1/" xmlns:cc="http://creativecommons.org/ns#" xmlns:rdf="http://www.w3.org/1999/02/22-rdf-syntax-ns#" xmlns:svg="http://www.w3.org/2000/svg" xmlns="http://www.w3.org/2000/svg" xmlns:sodipodi="http://sodipodi.sourceforge.net/DTD/sodipodi-0.dtd" xmlns:inkscape="http://www.inkscape.org/namespaces/inkscape" version="1.1" id="svg8" inkscape:version="1.0.2-2 (e86c870879, 2021-01-15)" sodipodi:docname="TNA Wrestling (2024) Logo.svg" viewBox="33.07 102.89 198.44 58.8">
  <title id="title895">TNA Wrestling (2024) Logo</title>
  <defs id="defs2"/>
  <sodipodi:namedview id="base" pagecolor="#bfbfbf" bordercolor="#666666" borderopacity="1.0" inkscape:pageopacity="0" inkscape:pageshadow="2" inkscape:zoom="0.52538034" inkscape:cx="393.50364" inkscape:cy="502.89113" inkscape:document-units="mm" inkscape:current-layer="layer1" inkscape:document-rotation="0" showgrid="false" inkscape:pagecheckerboard="true" units="px" inkscape:showpageshadow="false" inkscape:window-width="1920" inkscape:window-height="1017" inkscape:window-x="-8" inkscape:window-y="-8" inkscape:window-maximized="1" inkscape:snap-global="true" inkscape:object-paths="false" inkscape:snap-intersection-paths="false" inkscape:snap-smooth-nodes="false" inkscape:snap-midpoints="true"/>
  <metadata id="metadata5">
    <rdf:RDF>
      <cc:Work rdf:about="">
        <dc:format>image/svg+xml</dc:format>
        <dc:type rdf:resource="http://purl.org/dc/dcmitype/StillImage"/>
        <dc:title>TNA Wrestling (2024) Logo</dc:title>
      </cc:Work>
    </rdf:RDF>
  </metadata>
  <g inkscape:label="Layer 1" inkscape:groupmode="layer" id="layer1">
    <g id="g880" transform="translate(-1.6833333e-5,-2.0958333e-4)">
      <path id="path966" style="color:#000000;font-style:normal;font-variant:normal;font-weight:normal;font-stretch:normal;font-size:medium;line-height:normal;font-family:sans-serif;font-variant-ligatures:normal;font-variant-position:normal;font-variant-caps:normal;font-variant-numeric:normal;font-variant-alternates:normal;font-variant-east-asian:normal;font-feature-settings:normal;font-variation-settings:normal;text-indent:0;text-align:start;text-decoration:none;text-decoration-line:none;text-decoration-style:solid;text-decoration-color:#000000;letter-spacing:normal;word-spacing:normal;text-transform:none;writing-mode:lr-tb;direction:ltr;text-orientation:mixed;dominant-baseline:auto;baseline-shift:baseline;text-anchor:start;white-space:normal;shape-padding:0;shape-margin:0;inline-size:0;clip-rule:nonzero;display:inline;overflow:visible;visibility:visible;isolation:auto;mix-blend-mode:normal;color-interpolation:sRGB;color-interpolation-filters:linearRGB;solid-color:#000000;solid-opacity:1;vector-effect:none;fill:#f0e60d;fill-opacity:1;fill-rule:nonzero;stroke:none;stroke-width:0.650905;stroke-linecap:butt;stroke-linejoin:miter;stroke-miterlimit:50;stroke-dasharray:none;stroke-dashoffset:0;stroke-opacity:1;color-rendering:auto;image-rendering:auto;shape-rendering:auto;text-rendering:auto;enable-background:accumulate;stop-color:#000000" d="m 149.21197,110.52621 -17.01038,10.06654 -16.64893,-9.79761 -0.10425,0.009 -82.375493,7.45197 v 0.36965 l 71.497873,7.18812 3.46321,2.53106 0.15178,-0.2924 -3.49432,-2.55355 -70.130723,-7.05082 80.917013,-7.31975 16.72424,9.84181 17.08645,-10.11152 80.17576,6.61232 -52.10117,5.64417 0.0288,0.32409 54.11862,-5.86245 v -0.26345 z m -40.86464,23.21216 -3.5657,2.5338 -21.26962,2.15104 -50.439093,4.71261 v 0.26442 l 82.734003,7.22763 16.61529,-9.42756 16.97811,10.37615 82.11008,-6.87304 v -0.2613 l -47.7099,-5.15991 -0.01,0.32643 45.67347,4.93949 -79.98505,6.69505 -17.05067,-10.42054 -16.69411,9.47215 -80.50864,-7.03321 48.317779,-4.51449 21.356651,-2.15983 3.51192,-2.49566 z m 51.9979,3.84558 -0.0174,0.32507 8.67808,0.7442 0.0569,-0.32174 z"/>
      <path id="path876" style="fill:#f0e60d;fill-opacity:1;stroke:none;stroke-width:0.100139px;stroke-linecap:butt;stroke-linejoin:miter;stroke-opacity:1" d="m 146.4463,113.47373 -6.16365,3.79434 -6.17088,11.15046 7.32639,-2.69241 6.08737,-2.54925 9.52575,-0.37845 11.45558,-0.47371 44.24982,-4.42021 -52.96017,-4.41884 z m -20.13972,20.42 -8.92296,3.6189 -4.24594,2.63354 -18.451444,-1.27247 -5.05938,0.37532 -38.191977,3.99834 62.505281,5.20372 4.7085,-2.8483 z"/>
      <path id="path983" style="color:#000000;font-style:normal;font-variant:normal;font-weight:normal;font-stretch:normal;font-size:medium;line-height:normal;font-family:sans-serif;font-variant-ligatures:normal;font-variant-position:normal;font-variant-caps:normal;font-variant-numeric:normal;font-variant-alternates:normal;font-variant-east-asian:normal;font-feature-settings:normal;font-variation-settings:normal;text-indent:0;text-align:start;text-decoration:none;text-decoration-line:none;text-decoration-style:solid;text-decoration-color:#000000;letter-spacing:normal;word-spacing:normal;text-transform:none;writing-mode:lr-tb;direction:ltr;text-orientation:mixed;dominant-baseline:auto;baseline-shift:baseline;text-anchor:start;white-space:normal;shape-padding:0;shape-margin:0;inline-size:0;clip-rule:nonzero;display:inline;overflow:visible;visibility:visible;isolation:auto;mix-blend-mode:normal;color-interpolation:sRGB;color-interpolation-filters:linearRGB;solid-color:#000000;solid-opacity:1;vector-effect:none;fill:#e4be14;fill-opacity:1;fill-rule:nonzero;stroke:none;stroke-width:3.20446;stroke-linecap:square;stroke-linejoin:miter;stroke-miterlimit:50;stroke-dasharray:none;stroke-dashoffset:0;stroke-opacity:1;color-rendering:auto;image-rendering:auto;shape-rendering:auto;text-rendering:auto;enable-background:accumulate;stop-color:#000000" d="m 146.4463,113.47373 -6.16365,3.79434 -1.64115,2.96525 -0.0235,6.5292 2.82013,-1.0364 6.08737,-2.54925 2.32706,-0.0925 v -9.6075 z m 11.59112,0.0104 -4.28878,9.44556 3.30264,-0.13124 11.45558,-0.47371 5.46326,-0.54568 -3.58858,-7.41011 -10.58503,-0.88326 z m -23.49224,14.15112 -0.43341,0.78332 0.91631,-0.3368 z m -8.2386,6.25851 -0.31724,0.12869 0.14493,0.13496 z m -6.21353,2.52011 -2.70943,1.09879 -4.24594,2.63355 -4.58235,-0.31607 v 8.17269 l 5.38483,0.44828 4.7085,-2.84829 1.44439,-2.20855 z m -25.406814,2.45986 -5.05938,0.37533 -3.800793,0.39782 v 6.46367 l 11.18,0.93079 v -8.00762 z"/>
      <path id="path1030" style="fill:#e61b1f;fill-opacity:1;stroke:none;stroke-width:0.940664;stroke-linecap:square;stroke-miterlimit:50" d="m 115.36126,113.33707 -5.62285,0.0475 -57.854875,5.31168 58.274005,4.39244 v 25.04753 l 3.78261,0.31489 4.55066,-2.75285 v -20.84422 l 14.0903,13.1155 10.47218,6.23856 5.19707,-10.53731 v -20.19703 h -1.80407 l -6.16365,3.79434 -0.0284,0.0512 -0.064,17.71937 -21.32672,-19.72431 z m 44.43524,0.14865 -14.59432,32.14118 4.71456,2.66992 2.57761,-0.0168 11.72568,-25.55722 11.86044,24.74848 8.20457,-0.71603 -15.75883,-32.54116 z m -72.368222,12.55359 v 20.20466 l 7.975544,0.66401 v -20.26745 z m 72.741782,13.93794 -3.38654,7.59708 14.95087,-0.89323 -2.73291,-6.12434 z m 23.80655,1.02271 2.51443,4.91093 26.10173,-1.36264 -28.58917,-3.54751 z"/>
      <path id="path883" style="fill:#f0e60d;fill-opacity:1;stroke:none;stroke-width:0.190539px;stroke-linecap:butt;stroke-linejoin:miter;stroke-opacity:1" d="m 55.719889,152.70702 -1.822695,3.04975 -1.405675,-2.93044 -1.584567,-0.0239 2.883106,5.9444 1.905979,-3.28797 1.918098,3.63337 2.883117,-5.67039 -1.727291,-0.0714 -1.29874,2.70415 z m 155.406901,1.10017 c -0.12455,-0.002 -0.25036,0.002 -0.37693,0.008 -0.0112,7.6e-4 -0.0228,0.001 -0.0342,0.002 -0.0296,0.002 -0.059,0.004 -0.0884,0.006 l -3.8e-4,-3.8e-4 c -2.19575,0.1657 -3.94135,1.5173 -3.94118,3.05249 0,1.56843 1.81983,2.74132 4.06416,2.61985 1.11671,-0.0603 2.16895,-0.43869 2.92651,-1.02956 v -0.77784 -0.63017 -0.9924 l -1.50793,0.11599 -1.67509,0.12889 v 0.99259 l 1.67509,-0.12909 v 0.91064 c -0.41391,0.21279 -0.90458,0.34694 -1.41858,0.37474 -1.42539,0.0772 -2.58089,-0.6677 -2.58106,-1.66383 -1.9e-4,-0.99632 1.1554,-1.86676 2.58106,-1.94392 0.65246,-0.0353 1.2666,0.1042 1.73354,0.37494 l 0.97284,-0.83456 c -0.64303,-0.36648 -1.45757,-0.57495 -2.32944,-0.5846 z m -137.26521,0.69882 v 5.23482 l 1.5529,0.0632 v -2.50857 l 2.696595,2.74991 h 2.031297 l -2.194539,-2.1833 c 0.516397,-0.009 1.774004,-0.16987 1.774004,-1.52068 0,-1.48645 -1.526202,-1.65631 -1.907736,-1.67557 v 2e-4 1.9e-4 c -0.05451,-0.003 -0.08563,-0.003 -0.08563,-0.003 l -2.313994,-0.0941 z m 112.43745,0.47468 v 5.63948 0.0125 l 1.56072,-0.0125 v -0.0123 -3.10686 l 5.03756,3.13639 v -1.34249 -4.18981 -0.0123 l -1.56071,0.0123 v 0.0125 3.01943 z m -92.504346,0.49835 v 5.35843 l 1.552696,0.0385 3.420357,0.0833 v -1.15825 l -3.369917,-0.0835 v -1.0147 l 3.252032,0.0835 v -1.15844 l -3.252032,-0.0833 v -0.86859 l 3.420557,0.0833 v -1.15845 l -3.470997,-0.0833 z m -18.380204,0.003 1.521213,0.0618 c 0,0 0.08423,-0.006 0.21096,0.002 v -3.8e-4 c 0.380243,0.0189 1.015838,0.16034 1.015838,0.82771 0,0.66738 -1.226798,0.63585 -1.226798,0.63585 l -1.521213,-0.0618 z m 40.00383,0.39019 c -1.98782,0 -2.59592,1.05825 -2.59592,1.64859 0,0.47812 0.29536,0.76277 0.69327,0.99259 0.39789,0.22982 1.64849,0.6177 2.39454,0.80189 0.74605,0.18419 0.82554,0.49137 0.65455,0.79095 -0.17098,0.29957 -0.94203,0.48983 -1.59024,0.33543 -0.6482,-0.15441 -1.13784,-0.57131 -1.13784,-0.57131 l -1.30265,0.3855 c 0,0 0.87026,1.23511 3.0536,1.23511 2.18334,0 2.85164,-1.03865 2.85164,-1.61807 0,-0.51136 -0.47854,-0.84469 -0.9572,-1.10094 -0.47866,-0.25625 -1.59841,-0.4993 -2.30969,-0.69491 -0.71129,-0.19562 -0.79889,-0.48887 -0.64322,-0.79407 0.15568,-0.30522 0.85756,-0.499 1.44772,-0.34169 0.59015,0.15732 1.03617,0.58206 1.03617,0.58206 l 1.18574,-0.39293 c 0,0 -0.79265,-1.2582 -2.78047,-1.2582 z m 57.29489,0.0419 -1.56072,0.0246 v 5.30073 l 1.56072,-0.0248 z m -19.15657,0.44261 -1.56071,0.0338 v 4.13485 0.98751 0.14415 h 5.46241 v -1.13166 h -3.9017 z m -21.82324,0.0675 v 1.13166 h 2.46024 v 4.13367 h 1.56052 v -4.13367 h 2.46004 v -1.13166 z"/>
      <path id="path893" style="fill:#f0e60d;fill-opacity:1;stroke:none;stroke-width:0.0804291px;stroke-linecap:butt;stroke-linejoin:miter;stroke-opacity:1" d="m 145.73234,102.89419 c -0.92824,0.006 -1.67655,0.58161 -1.67656,1.28949 5e-5,0.71218 0.75713,1.2895 1.69102,1.28949 0.9339,1e-5 1.69098,-0.57731 1.69103,-1.28949 -4e-5,-0.71217 -0.75713,-1.28949 -1.69103,-1.28949 -0.005,-10e-6 -0.01,-10e-6 -0.0145,0 z m -17.23867,0.0112 c -0.0469,-7.6e-4 -0.0957,1.5e-4 -0.14626,0.003 -0.80963,0.0539 -1.048,0.53283 -1.04288,0.79074 0.004,0.20889 0.12687,0.32522 0.29093,0.41484 0.16406,0.0896 0.67682,0.2251 0.98227,0.28536 0.30546,0.0603 0.34039,0.19229 0.27334,0.3278 -0.0671,0.13552 -0.37947,0.23959 -0.64481,0.18972 -0.26535,-0.0499 -0.46827,-0.21886 -0.46827,-0.21886 l -0.52731,0.2038 c 0,0 0.36517,0.51607 1.25444,0.45688 0.88926,-0.0592 1.15251,-0.53115 1.14749,-0.78429 -0.004,-0.22341 -0.20228,-0.35596 -0.39945,-0.45493 -0.1972,-0.099 -0.65547,-0.17478 -0.94688,-0.24097 -0.29139,-0.0661 -0.32959,-0.19199 -0.26884,-0.32955 0.0608,-0.13757 0.34501,-0.24128 0.58674,-0.18855 0.24173,0.0527 0.42702,0.22629 0.42702,0.22629 l 0.4796,-0.20399 c 0,0 -0.29335,-0.46419 -0.99713,-0.47781 z m -10.03351,0.0557 v 2.4896 l 0.65909,0.0141 v -1.40117 l 2.12761,1.44673 v -0.56739 -1.9224 l -0.65909,-0.0141 v 1.40977 z m 17.10279,0.0602 v 0.47782 l 1.03838,0.002 v 1.7452 l 0.6587,0.001 v -1.74521 l 1.03819,0.002 v -0.47782 z m -24.82022,0.12361 c -0.92826,0.0107 -1.67657,0.58999 -1.67654,1.2979 4e-5,0.71218 0.75712,1.28573 1.69102,1.28108 0.93388,-0.005 1.69095,-0.58573 1.69101,-1.2979 -4e-5,-0.71218 -0.75712,-1.28573 -1.69101,-1.28108 -0.005,5e-5 -0.01,10e-5 -0.0145,2e-4 z m 44.43031,0.0726 v 2e-4 c -0.0231,-2e-4 -0.0364,1.9e-4 -0.0364,1.9e-4 h -0.98149 -0.6587 l -0.0238,2.22145 h 0.6587 l 0.009,-0.86604 h 0.98149 c 0,0 0.84511,0.0432 0.85283,-0.67771 0.007,-0.63078 -0.64017,-0.6765 -0.802,-0.67809 z m -9.42624,0.14708 c 0.59319,0 1.07405,0.36675 1.07397,0.81911 -6e-5,0.45229 -0.48088,0.81891 -1.07397,0.81891 -0.59309,0 -1.07391,-0.36662 -1.07397,-0.81891 -8e-5,-0.45236 0.48079,-0.81911 1.07397,-0.81911 z m -45.4771,0.0552 v 2.48959 h 0.65929 v -1.40117 l 2.12741,1.40117 v -0.56719 -1.9224 h -0.65909 v 1.40957 z m 70.00677,0.0375 -1.5827,2.41879 0.70406,-0.0106 0.25182,-0.37435 h 1.13458 l 0.25183,0.37435 0.70425,0.0106 z m -15.39026,0.10425 c 0.16129,0.002 0.48353,0.0415 0.48039,0.33406 -0.004,0.39012 -0.57697,0.33112 -0.57697,0.33112 h -0.6452 l 0.007,-0.66205 h 0.6452 c 0,0 0.0358,-0.004 0.0895,-0.003 z m -44.129,0.0538 c 0.59323,-0.003 1.0741,0.36144 1.07397,0.81383 0,0.45226 -0.48091,0.82124 -1.07397,0.8242 -0.59313,0.003 -1.07397,-0.36132 -1.07398,-0.81364 -3e-5,-0.45234 0.48082,-0.82144 1.07398,-0.82439 z m 68.05649,0.16899 c -0.91361,-0.002 -1.63986,0.5321 -1.6398,1.20499 0,0.68748 0.7572,1.26293 1.69102,1.28539 0.58734,0.0141 1.13263,-0.19711 1.44037,-0.55801 l -0.48879,-0.29728 c -0.18532,0.25622 -0.55193,0.41076 -0.95158,0.40114 -0.59308,-0.0143 -1.0739,-0.37975 -1.07397,-0.81637 -8e-5,-0.4367 0.48078,-0.77919 1.07397,-0.76493 0.4068,0.01 0.77868,0.18796 0.96058,0.46021 0.16614,-0.0979 0.32743,-0.19189 0.48508,-0.28067 -0.30664,-0.37925 -0.85473,-0.61951 -1.44566,-0.63369 -0.005,-1e-4 -0.01,-2.9e-4 -0.0143,-3.8e-4 -0.0123,-2e-4 -0.0245,-3.7e-4 -0.0368,-3.7e-4 z m -92.990304,0.37063 -0.672568,0.0147 v 2.27015 h 2.353621 v -0.48798 h -1.681053 z m 100.268004,0.11364 v 0.47761 l 1.03819,0.0464 v 1.7452 l 0.6587,0.0295 v -1.7452 l 1.03819,0.0464 v -0.47781 z m -108.085334,0.14121 -1.481609,2.41879 0.70366,-0.0106 0.236175,-0.37435 h 1.134586 l 0.267467,0.37435 0.704645,0.0106 z m 92.210774,0.23802 0.33102,0.4919 h -0.66184 z m 25.24057,0.10875 -0.66279,0.0106 v 2.2459 l 0.66279,-0.0104 z m -124.106316,0.23979 -2.735083,0.16253 v 0.47781 l 1.038191,-0.0618 v 1.7452 l 0.658697,-0.0391 v -1.7452 l 1.038195,-0.0616 z m 131.618636,0.0524 c -0.89861,-2e-4 -1.60326,0.53777 -1.60323,1.22397 -2e-5,0.71221 0.75708,1.31975 1.69103,1.35696 0.93394,0.0373 1.69105,-0.50998 1.69102,-1.2222 0,-0.71214 -0.75719,-1.31956 -1.69102,-1.35677 -0.005,-3e-4 -0.01,-3.8e-4 -0.0145,-7.6e-4 v 2e-4 c -0.0245,-7.6e-4 -0.0489,-0.001 -0.0733,-0.002 z m -141.646875,0.44867 c -0.05419,1e-5 -0.108612,0.002 -0.16306,0.006 -0.0048,3.8e-4 -0.0096,7.6e-4 -0.01446,0.001 -0.92819,0.0754 -1.676469,0.7068 -1.676549,1.41466 4.2e-5,0.71217 0.757117,1.23292 1.691011,1.16314 0.933893,-0.0698 1.690976,-0.70366 1.691025,-1.41584 0,-0.66396 -0.661339,-1.16994 -1.527965,-1.1692 z m 141.684625,0.0225 c 0.0167,9e-5 0.0334,3.7e-4 0.0501,0.001 0.59311,0.0236 1.07393,0.40944 1.07396,0.86175 6e-5,0.45235 -0.48078,0.79991 -1.07396,0.77627 -0.59311,-0.0236 -1.07394,-0.40944 -1.07397,-0.86175 -1.1e-4,-0.43753 0.45079,-0.77989 1.02392,-0.77744 z m 7.76219,0.064 v 2.48979 l 0.65908,0.0737 v -1.40117 l 2.12761,1.63958 v -0.56719 -1.9224 l -0.65929,-0.0739 v 1.40977 z m -132.773373,0.0164 0.351539,0.49189 h -0.66182 z m -16.719968,0.36965 c 0.5449,0.005 0.957578,0.32481 0.957442,0.74283 0,0.45227 -0.480903,0.85479 -1.073976,0.8991 -0.593115,0.0443 -1.073949,-0.28641 -1.073968,-0.73872 -3.8e-5,-0.45234 0.4808,-0.85498 1.073968,-0.8993 0.03893,-0.003 0.07783,-0.004 0.116534,-0.004 z m -7.514082,0.25602 -2.735272,0.18366 v 0.47781 l 1.03838,-0.0616 v 1.7452 l 0.658501,-0.0391 v -1.74539 l 1.038391,-0.0827 z"/>
    </g>
  </g>
</svg>