<svg xmlns="http://www.w3.org/2000/svg" viewBox="0 0 98 96" aria-hidden="true">
    <path
        fill="currentColor"
        fill-rule="evenodd"
        clip-rule="evenodd"
        d="M48.854 0C21.839 0 0 22 0 49.217c0 21.756 13.993 40.172 33.405 46.69 2.427.49 3.316-1.059 3.316-2.362 0-1.141-.08-5.052-.08-9.127-13.59 2.934-16.436-5.887-16.436-5.887-2.184-5.704-5.42-7.17-5.42-7.17-4.448-3.045.34-3.037.34-3.037 4.492.315 6.867 4.811 6.867 4.811 4.709 8.209 11.827 5.81 14.59 4.577.446-3.667 1.709-5.81 3.095-7.153-10.569-1.211-21.69-5.347-21.69-23.819 0-5.281 1.879-9.561 5.024-12.936-1.015-2.52-4.379-11.296 1.242-23.243 0 0 4.187-2.367 13.766 4.633 4.007-1.002 8.323-1.528 12.592-1.585 4.269.057 8.599.583 12.605 1.585 9.581-7 13.766-4.633 13.766-4.633 6.623 11.947 3.279 20.723 1.264 23.243 3.141 3.374 5.059 7.655 5.059 12.936 0 18.553-11.117 22.606-21.705 23.795 1.705 1.474 3.324 4.385 3.324 8.885 0 6.458-.08 11.66-.08 13.249 0 1.303.886 2.874 3.316 2.373 19.412-6.52 33.405-24.935 33.405-46.691C97.707 22 75.788 0 48.854 0z"
    />
</svg>
